<svg xmlns="http://www.w3.org/2000/svg" width="832" height="556" viewBox="0 0 832 556" font-family="-apple-system,Segoe UI,Roboto,Helvetica,Arial,sans-serif">
<rect width="832" height="556" rx="10" fill="#0d1117"/>
<text x="16" y="30" fill="#e6edf3" font-size="18" font-weight="700">Dezh vs capability / isolation systems &#8212; what each already does, and where Dezh differs</text>
<text x="16" y="46" fill="#8b949e" font-size="12">Honest matrix: Dezh concedes formal verification (seL4), IOMMU (Genode/Fuchsia) and signed packages (Fuchsia). It owns the effect / mission / intent / agent rows.</text>
<rect x="16" y="52" width="340" height="40" fill="#0d1117"/>
<rect x="356" y="52" width="92" height="40" fill="#1f6feb"/>
<text x="402.0" y="77.0" fill="#e6edf3" font-size="14" font-weight="700" text-anchor="middle">Dezh</text>
<rect x="448" y="52" width="92" height="40" fill="#161b22"/>
<text x="494.0" y="77.0" fill="#e6edf3" font-size="14" font-weight="600" text-anchor="middle">seL4</text>
<rect x="540" y="52" width="92" height="40" fill="#161b22"/>
<text x="586.0" y="77.0" fill="#e6edf3" font-size="14" font-weight="600" text-anchor="middle">Genode</text>
<rect x="632" y="52" width="92" height="40" fill="#161b22"/>
<text x="678.0" y="77.0" fill="#e6edf3" font-size="14" font-weight="600" text-anchor="middle">Fuchsia</text>
<rect x="724" y="52" width="92" height="40" fill="#161b22"/>
<text x="770.0" y="77.0" fill="#e6edf3" font-size="14" font-weight="600" text-anchor="middle">gVisor</text>
<rect x="16" y="92" width="800" height="34" fill="#161b22" opacity="0.5"/>
<text x="24" y="114.0" fill="#e6edf3" font-size="13">No ambient authority (from-scratch)</text>
<rect x="356" y="92" width="92" height="34" fill="#1f6feb" opacity="0.10"/>
<text x="402.0" y="115.0" fill="#3fb950" font-size="18" font-weight="700" text-anchor="middle">✔</text>
<text x="494.0" y="115.0" fill="#3fb950" font-size="18" font-weight="700" text-anchor="middle">✔</text>
<text x="586.0" y="115.0" fill="#3fb950" font-size="18" font-weight="700" text-anchor="middle">✔</text>
<text x="678.0" y="115.0" fill="#3fb950" font-size="18" font-weight="700" text-anchor="middle">✔</text>
<text x="770.0" y="115.0" fill="#f85149" font-size="18" font-weight="700" text-anchor="middle">✗</text>
<text x="24" y="148.0" fill="#e6edf3" font-size="13">Capability-based access control</text>
<rect x="356" y="126" width="92" height="34" fill="#1f6feb" opacity="0.10"/>
<text x="402.0" y="149.0" fill="#3fb950" font-size="18" font-weight="700" text-anchor="middle">✔</text>
<text x="494.0" y="149.0" fill="#3fb950" font-size="18" font-weight="700" text-anchor="middle">✔</text>
<text x="586.0" y="149.0" fill="#3fb950" font-size="18" font-weight="700" text-anchor="middle">✔</text>
<text x="678.0" y="149.0" fill="#3fb950" font-size="18" font-weight="700" text-anchor="middle">✔</text>
<text x="770.0" y="149.0" fill="#f85149" font-size="18" font-weight="700" text-anchor="middle">✗</text>
<rect x="16" y="160" width="800" height="34" fill="#161b22" opacity="0.5"/>
<text x="24" y="182.0" fill="#e6edf3" font-size="13">Drivers in user space</text>
<rect x="356" y="160" width="92" height="34" fill="#1f6feb" opacity="0.10"/>
<text x="402.0" y="183.0" fill="#3fb950" font-size="18" font-weight="700" text-anchor="middle">✔</text>
<text x="494.0" y="183.0" fill="#3fb950" font-size="18" font-weight="700" text-anchor="middle">✔</text>
<text x="586.0" y="183.0" fill="#3fb950" font-size="18" font-weight="700" text-anchor="middle">✔</text>
<text x="678.0" y="183.0" fill="#3fb950" font-size="18" font-weight="700" text-anchor="middle">✔</text>
<text x="770.0" y="183.0" fill="#f85149" font-size="18" font-weight="700" text-anchor="middle">✗</text>
<text x="24" y="216.0" fill="#e6edf3" font-size="13">Formally verified kernel</text>
<rect x="356" y="194" width="92" height="34" fill="#1f6feb" opacity="0.10"/>
<text x="402.0" y="217.0" fill="#f85149" font-size="18" font-weight="700" text-anchor="middle">✗</text>
<text x="494.0" y="217.0" fill="#3fb950" font-size="18" font-weight="700" text-anchor="middle">✔</text>
<text x="586.0" y="217.0" fill="#f85149" font-size="18" font-weight="700" text-anchor="middle">✗</text>
<text x="678.0" y="217.0" fill="#f85149" font-size="18" font-weight="700" text-anchor="middle">✗</text>
<text x="770.0" y="217.0" fill="#f85149" font-size="18" font-weight="700" text-anchor="middle">✗</text>
<rect x="16" y="228" width="800" height="34" fill="#161b22" opacity="0.5"/>
<text x="24" y="250.0" fill="#e6edf3" font-size="13">Effect ledger ON the authorization path</text>
<rect x="356" y="228" width="92" height="34" fill="#1f6feb" opacity="0.10"/>
<text x="402.0" y="251.0" fill="#3fb950" font-size="18" font-weight="700" text-anchor="middle">✔</text>
<text x="494.0" y="251.0" fill="#f85149" font-size="18" font-weight="700" text-anchor="middle">✗</text>
<text x="586.0" y="251.0" fill="#f85149" font-size="18" font-weight="700" text-anchor="middle">✗</text>
<text x="678.0" y="251.0" fill="#f85149" font-size="18" font-weight="700" text-anchor="middle">✗</text>
<text x="770.0" y="251.0" fill="#f85149" font-size="18" font-weight="700" text-anchor="middle">✗</text>
<text x="24" y="284.0" fill="#e6edf3" font-size="13">Per-effect reversibility class</text>
<rect x="356" y="262" width="92" height="34" fill="#1f6feb" opacity="0.10"/>
<text x="402.0" y="285.0" fill="#3fb950" font-size="18" font-weight="700" text-anchor="middle">✔</text>
<text x="494.0" y="285.0" fill="#f85149" font-size="18" font-weight="700" text-anchor="middle">✗</text>
<text x="586.0" y="285.0" fill="#f85149" font-size="18" font-weight="700" text-anchor="middle">✗</text>
<text x="678.0" y="285.0" fill="#f85149" font-size="18" font-weight="700" text-anchor="middle">✗</text>
<text x="770.0" y="285.0" fill="#f85149" font-size="18" font-weight="700" text-anchor="middle">✗</text>
<rect x="16" y="296" width="800" height="34" fill="#161b22" opacity="0.5"/>
<text x="24" y="318.0" fill="#e6edf3" font-size="13">Whole-mission rollback + compensation</text>
<rect x="356" y="296" width="92" height="34" fill="#1f6feb" opacity="0.10"/>
<text x="402.0" y="319.0" fill="#3fb950" font-size="18" font-weight="700" text-anchor="middle">✔</text>
<text x="494.0" y="319.0" fill="#f85149" font-size="18" font-weight="700" text-anchor="middle">✗</text>
<text x="586.0" y="319.0" fill="#f85149" font-size="18" font-weight="700" text-anchor="middle">✗</text>
<text x="678.0" y="319.0" fill="#f85149" font-size="18" font-weight="700" text-anchor="middle">✗</text>
<text x="770.0" y="319.0" fill="#f85149" font-size="18" font-weight="700" text-anchor="middle">✗</text>
<text x="24" y="352.0" fill="#e6edf3" font-size="13">Explainable denial + provenance graph</text>
<rect x="356" y="330" width="92" height="34" fill="#1f6feb" opacity="0.10"/>
<text x="402.0" y="353.0" fill="#3fb950" font-size="18" font-weight="700" text-anchor="middle">✔</text>
<text x="494.0" y="353.0" fill="#f85149" font-size="18" font-weight="700" text-anchor="middle">✗</text>
<text x="586.0" y="353.0" fill="#f85149" font-size="18" font-weight="700" text-anchor="middle">✗</text>
<text x="678.0" y="353.0" fill="#f85149" font-size="18" font-weight="700" text-anchor="middle">✗</text>
<text x="770.0" y="353.0" fill="#d29922" font-size="18" font-weight="700" text-anchor="middle">~</text>
<rect x="16" y="364" width="800" height="34" fill="#161b22" opacity="0.5"/>
<text x="24" y="386.0" fill="#e6edf3" font-size="13">Intent-scoped authority + leases</text>
<rect x="356" y="364" width="92" height="34" fill="#1f6feb" opacity="0.10"/>
<text x="402.0" y="387.0" fill="#3fb950" font-size="18" font-weight="700" text-anchor="middle">✔</text>
<text x="494.0" y="387.0" fill="#d29922" font-size="18" font-weight="700" text-anchor="middle">~</text>
<text x="586.0" y="387.0" fill="#d29922" font-size="18" font-weight="700" text-anchor="middle">~</text>
<text x="678.0" y="387.0" fill="#d29922" font-size="18" font-weight="700" text-anchor="middle">~</text>
<text x="770.0" y="387.0" fill="#f85149" font-size="18" font-weight="700" text-anchor="middle">✗</text>
<text x="24" y="420.0" fill="#e6edf3" font-size="13">Agent as a first-class principal</text>
<rect x="356" y="398" width="92" height="34" fill="#1f6feb" opacity="0.10"/>
<text x="402.0" y="421.0" fill="#3fb950" font-size="18" font-weight="700" text-anchor="middle">✔</text>
<text x="494.0" y="421.0" fill="#f85149" font-size="18" font-weight="700" text-anchor="middle">✗</text>
<text x="586.0" y="421.0" fill="#f85149" font-size="18" font-weight="700" text-anchor="middle">✗</text>
<text x="678.0" y="421.0" fill="#f85149" font-size="18" font-weight="700" text-anchor="middle">✗</text>
<text x="770.0" y="421.0" fill="#f85149" font-size="18" font-weight="700" text-anchor="middle">✗</text>
<rect x="16" y="432" width="800" height="34" fill="#161b22" opacity="0.5"/>
<text x="24" y="454.0" fill="#e6edf3" font-size="13">IOMMU-enforced DMA</text>
<rect x="356" y="432" width="92" height="34" fill="#1f6feb" opacity="0.10"/>
<text x="402.0" y="455.0" fill="#f85149" font-size="18" font-weight="700" text-anchor="middle">✗</text>
<text x="494.0" y="455.0" fill="#d29922" font-size="18" font-weight="700" text-anchor="middle">~</text>
<text x="586.0" y="455.0" fill="#3fb950" font-size="18" font-weight="700" text-anchor="middle">✔</text>
<text x="678.0" y="455.0" fill="#3fb950" font-size="18" font-weight="700" text-anchor="middle">✔</text>
<text x="770.0" y="455.0" fill="#f85149" font-size="18" font-weight="700" text-anchor="middle">✗</text>
<text x="24" y="488.0" fill="#e6edf3" font-size="13">Signed packages</text>
<rect x="356" y="466" width="92" height="34" fill="#1f6feb" opacity="0.10"/>
<text x="402.0" y="489.0" fill="#f85149" font-size="18" font-weight="700" text-anchor="middle">✗</text>
<text x="494.0" y="489.0" fill="#f85149" font-size="18" font-weight="700" text-anchor="middle">✗</text>
<text x="586.0" y="489.0" fill="#d29922" font-size="18" font-weight="700" text-anchor="middle">~</text>
<text x="678.0" y="489.0" fill="#3fb950" font-size="18" font-weight="700" text-anchor="middle">✔</text>
<text x="770.0" y="489.0" fill="#f85149" font-size="18" font-weight="700" text-anchor="middle">✗</text>
<line x1="356" y1="52" x2="356" y2="500" stroke="#30363d" stroke-width="1"/>
<line x1="448" y1="52" x2="448" y2="500" stroke="#30363d" stroke-width="1"/>
<line x1="540" y1="52" x2="540" y2="500" stroke="#30363d" stroke-width="1"/>
<line x1="632" y1="52" x2="632" y2="500" stroke="#30363d" stroke-width="1"/>
<line x1="724" y1="52" x2="724" y2="500" stroke="#30363d" stroke-width="1"/>
<line x1="816" y1="52" x2="816" y2="500" stroke="#30363d" stroke-width="1"/>
<line x1="16" y1="52" x2="16" y2="500" stroke="#30363d" stroke-width="1"/>
<line x1="16" y1="52" x2="816" y2="52" stroke="#30363d"/>
<line x1="16" y1="92" x2="816" y2="92" stroke="#30363d"/>
<line x1="16" y1="500" x2="816" y2="500" stroke="#30363d"/>
<text x="16" y="526" fill="#3fb950" font-size="15" font-weight="700">✔</text><text x="34" y="526" fill="#8b949e" font-size="12">yes</text>
<text x="86" y="526" fill="#d29922" font-size="15" font-weight="700">~</text><text x="102" y="526" fill="#8b949e" font-size="12">partial</text>
<text x="166" y="526" fill="#f85149" font-size="15" font-weight="700">✗</text><text x="184" y="526" fill="#8b949e" font-size="12">no</text>
<text x="816" y="526" fill="#8b949e" font-size="11" text-anchor="end">Dezh: research prototype, QEMU-only. See docs/RELATED_WORK.md &amp; docs/THREAT_MODEL.md</text>
</svg>